<?xml version="1.0" encoding="iso-8859-1"?>
<!-- Generator: Adobe Illustrator 19.0.0, SVG Export Plug-In . SVG Version: 6.00 Build 0)  -->
<svg version="1.1" id="Capa_1" xmlns="http://www.w3.org/2000/svg" xmlns:xlink="http://www.w3.org/1999/xlink" x="0px" y="0px"
	 viewBox="0 0 512 512" style="enable-background:new 0 0 512 512;" xml:space="preserve">
<path style="fill:#7CC3AC;" d="M504.5,78.523c0,39.225-31.798,71.023-71.023,71.023s-71.023-31.798-71.023-71.023
	S394.252,7.5,433.477,7.5S504.5,39.298,504.5,78.523z"/>
<path style="fill:#61AE9F;" d="M504.5,78.523c0,39.225-31.798,71.023-71.023,71.023c-4.309,0-8.521-0.405-12.619-1.14
	c33.201-5.957,58.404-34.967,58.404-69.883c0-34.915-25.202-63.925-58.404-69.883c4.098-0.735,8.31-1.14,12.619-1.14
	C472.702,7.5,504.5,39.298,504.5,78.523z M433.477,465.672c-10.722,0-19.414,8.692-19.414,19.414s8.692,19.414,19.414,19.414
	c10.722,0,19.414-8.692,19.414-19.414S444.199,465.672,433.477,465.672z"/>
<path style="fill:#FE5E47;" d="M327.023,224.129c0,39.225-31.798,71.023-71.023,71.023s-71.023-31.798-71.023-71.023
	s31.798-71.023,71.023-71.023S327.023,184.904,327.023,224.129z"/>
<path style="fill:#F53737;" d="M275.414,485.086c0,10.722-8.692,19.414-19.414,19.414s-19.414-8.692-19.414-19.414
	s8.692-19.414,19.414-19.414C266.722,465.672,275.414,474.364,275.414,485.086z M256,153.105c-4.309,0-8.521,0.405-12.619,1.14
	c33.201,5.957,58.404,34.967,58.404,69.883s-25.203,63.926-58.404,69.883c4.098,0.735,8.31,1.14,12.619,1.14
	c39.225,0,71.023-31.798,71.023-71.023C327.023,184.904,295.225,153.105,256,153.105z"/>
<path style="fill:#FF904E;" d="M149.546,78.523c0,39.225-31.798,71.023-71.023,71.023S7.5,117.748,7.5,78.523S39.298,7.5,78.523,7.5
	S149.546,39.298,149.546,78.523z"/>
<path style="fill:#FF733D;" d="M97.937,485.086c0,10.722-8.692,19.414-19.414,19.414s-19.414-8.692-19.414-19.414
	s8.692-19.414,19.414-19.414S97.937,474.364,97.937,485.086z M78.523,7.5c-4.309,0-8.521,0.405-12.619,1.14
	c33.201,5.957,58.404,34.967,58.404,69.883s-25.203,63.926-58.404,69.883c4.098,0.735,8.31,1.14,12.619,1.14
	c39.225,0,71.023-31.798,71.023-71.023S117.748,7.5,78.523,7.5z"/>
<path d="M434.448,71.023c4.142,0,7.5,3.357,7.5,7.5s-3.358,7.5-7.5,7.5h-0.971c-4.142,0-7.5-3.357-7.5-7.5s3.358-7.5,7.5-7.5
	H434.448z M408.724,71.023c-4.142,0-7.5,3.357-7.5,7.5s3.358,7.5,7.5,7.5h0.971c4.142,0,7.5-3.357,7.5-7.5s-3.358-7.5-7.5-7.5
	H408.724z M512,485.086c0,4.143-3.358,7.5-7.5,7.5h-45.18C456.064,503.787,445.715,512,433.477,512s-22.587-8.213-25.843-19.414
	H281.843C278.587,503.787,268.238,512,256,512s-22.587-8.213-25.843-19.414H104.366C101.109,503.787,90.76,512,78.523,512
	s-22.587-8.213-25.843-19.414H7.5c-4.142,0-7.5-3.357-7.5-7.5s3.358-7.5,7.5-7.5h45.18c2.564-8.819,9.524-15.779,18.343-18.343
	V156.679C31.231,152.89,0,119.291,0,78.523C0,35.226,35.225,0,78.523,0s78.523,35.226,78.523,78.523
	c0,14.463-3.967,28.601-11.472,40.885c-2.16,3.533-6.774,4.648-10.31,2.49c-3.535-2.16-4.649-6.775-2.49-10.311
	c6.066-9.929,9.272-21.362,9.272-33.064C142.046,43.496,113.55,15,78.523,15S15,43.496,15,78.523
	c0,35.026,28.496,63.522,63.523,63.522c13.928,0,27.147-4.421,38.229-12.785c3.307-2.494,8.009-1.837,10.504,1.468
	c2.495,3.307,1.838,8.01-1.468,10.505c-11.698,8.83-25.321,14.092-39.765,15.448v302.562c8.819,2.564,15.779,9.524,18.343,18.343
	h125.791c2.564-8.819,9.524-15.779,18.343-18.343V302.285c-39.792-3.789-71.023-37.388-71.023-78.156
	c0-37.897,27.013-70.376,64.23-77.225c4.074-0.756,7.984,1.944,8.733,6.019c0.75,4.073-1.945,7.983-6.019,8.733
	c-30.099,5.539-51.945,31.813-51.945,62.473c0,35.026,28.496,63.522,63.523,63.522s63.523-28.496,63.523-63.522
	c0-31.392-22.457-57.77-53.397-62.723c-4.09-0.654-6.875-4.501-6.22-8.591s4.5-6.874,8.591-6.22
	c18.235,2.918,34.944,12.274,47.049,26.344c12.237,14.224,18.977,32.403,18.977,51.189c0,40.767-31.231,74.366-71.023,78.156
	v156.958c8.819,2.564,15.779,9.524,18.343,18.343h125.791c2.564-8.819,9.524-15.779,18.343-18.343V156.679
	c-39.792-3.789-71.023-37.388-71.023-78.156C354.954,35.226,390.179,0,433.477,0c17.123,0,33.397,5.416,47.063,15.661
	c3.314,2.485,3.986,7.186,1.501,10.5c-2.484,3.314-7.186,3.988-10.5,1.502C460.493,19.379,447.33,15,433.477,15
	c-35.027,0-63.523,28.496-63.523,63.523c0,35.026,28.497,63.522,63.523,63.522S497,113.55,497,78.523
	c0-12.261-3.498-24.159-10.114-34.406c-2.247-3.479-1.247-8.122,2.232-10.369c3.479-2.248,8.123-1.247,10.369,2.232
	C507.673,48.658,512,63.369,512,78.523c0,40.767-31.231,74.366-71.023,78.156v302.564c8.819,2.564,15.779,9.524,18.343,18.343h45.18
	C508.642,477.586,512,480.943,512,485.086z M90.437,485.086c0-6.569-5.345-11.914-11.914-11.914s-11.914,5.345-11.914,11.914
	S71.954,497,78.523,497S90.437,491.655,90.437,485.086z M267.914,485.086c0-6.569-5.345-11.914-11.914-11.914
	c-6.568,0-11.911,5.342-11.914,11.909c0,0.002,0,0.003,0,0.005s0,0.003,0,0.005C244.089,491.658,249.432,497,256,497
	C262.569,497,267.914,491.655,267.914,485.086z M445.391,485.086c0-6.569-5.345-11.914-11.914-11.914s-11.914,5.345-11.914,11.914
	S426.908,497,433.477,497S445.391,491.655,445.391,485.086z M63.962,85.584c-4.142,0-7.5,3.357-7.5,7.5s3.358,7.5,7.5,7.5h29.121
	c4.142,0,7.5-3.357,7.5-7.5s-3.358-7.5-7.5-7.5H63.962z M241.439,231.189c-4.142,0-7.5,3.357-7.5,7.5s3.358,7.5,7.5,7.5h29.121
	c4.142,0,7.5-3.357,7.5-7.5s-3.358-7.5-7.5-7.5H241.439z M110.291,63.963c0-4.143-3.358-7.5-7.5-7.5H54.255
	c-4.142,0-7.5,3.357-7.5,7.5s3.358,7.5,7.5,7.5h48.535C106.933,71.463,110.291,68.105,110.291,63.963z M287.768,209.568
	c0-4.143-3.358-7.5-7.5-7.5h-48.535c-4.142,0-7.5,3.357-7.5,7.5s3.358,7.5,7.5,7.5h48.535
	C284.41,217.068,287.768,213.711,287.768,209.568z M457.259,71.023c-4.142,0-7.5,3.357-7.5,7.5s3.358,7.5,7.5,7.5h0.971
	c4.142,0,7.5-3.357,7.5-7.5s-3.358-7.5-7.5-7.5H457.259z"/>
<g>
</g>
<g>
</g>
<g>
</g>
<g>
</g>
<g>
</g>
<g>
</g>
<g>
</g>
<g>
</g>
<g>
</g>
<g>
</g>
<g>
</g>
<g>
</g>
<g>
</g>
<g>
</g>
<g>
</g>
</svg>
