<svg height="512pt" viewBox="0 0 512 512" width="512pt" xmlns="http://www.w3.org/2000/svg"><path d="M499.953 197.703l-39.351-8.555a214.162 214.162 0 00-12.664-30.539l21.785-33.886a15.302 15.302 0 00-2.051-19.09l-61.305-61.305a15.302 15.302 0 00-19.09-2.05l-33.886 21.785a214.162 214.162 0 00-30.54-12.665l-8.554-39.351A15.298 15.298 0 00299.347 0h-86.695a15.298 15.298 0 00-14.949 12.047l-8.555 39.351a214.162 214.162 0 00-30.539 12.664l-33.886-21.785a15.302 15.302 0 00-19.09 2.051l-61.305 61.305a15.302 15.302 0 00-2.05 19.09l21.785 33.886a214.162 214.162 0 00-12.665 30.54l-39.351 8.554A15.301 15.301 0 000 212.653v86.695a15.301 15.301 0 0012.047 14.949l39.351 8.555a214.162 214.162 0 0012.665 30.539l-21.786 33.886a15.302 15.302 0 002.051 19.09l61.305 61.305a15.302 15.302 0 0019.09 2.05l33.886-21.785a214.162 214.162 0 0030.54 12.665l8.554 39.351A15.298 15.298 0 00212.653 512h86.695a15.298 15.298 0 0014.949-12.047l8.555-39.351a214.162 214.162 0 0030.539-12.665l33.886 21.786a15.297 15.297 0 0019.09-2.051l61.305-61.305a15.302 15.302 0 002.05-19.09l-21.784-33.886a214.162 214.162 0 0012.664-30.54l39.351-8.554A15.301 15.301 0 00512 299.347v-86.695a15.301 15.301 0 00-12.047-14.949zM256 378.391c-67.484 0-122.39-54.907-122.39-122.391S188.515 133.61 256 133.61 378.39 188.515 378.39 256 323.485 378.39 256 378.39zm0 0" fill="#91cbe8"/><path d="M499.953 197.703l-39.351-8.555a214.162 214.162 0 00-12.664-30.539l21.785-33.886a15.302 15.302 0 00-2.051-19.09l-61.305-61.305a15.302 15.302 0 00-19.09-2.05l-33.886 21.785a214.162 214.162 0 00-30.54-12.665l-8.554-39.351A15.298 15.298 0 00299.347 0h-45.702v133.64c.785-.015 1.566-.03 2.355-.03 67.484 0 122.39 54.906 122.39 122.39S323.485 378.39 256 378.39c-.79 0-1.57-.015-2.355-.03V512h45.703a15.298 15.298 0 0014.949-12.047l8.555-39.351a214.162 214.162 0 0030.539-12.664l33.886 21.785a15.297 15.297 0 0019.09-2.051l61.305-61.305a15.302 15.302 0 002.05-19.09l-21.784-33.886a214.162 214.162 0 0012.664-30.54l39.351-8.554A15.301 15.301 0 00512 299.347v-86.695a15.301 15.301 0 00-12.047-14.949zm0 0" fill="#6aa9cc"/></svg>