<svg xmlns="http://www.w3.org/2000/svg" viewBox="0 0 512 512"><path d="M504.5 78.523c0 39.225-31.798 71.023-71.023 71.023s-71.023-31.798-71.023-71.023S394.252 7.5 433.477 7.5 504.5 39.298 504.5 78.523z" fill="#7cc3ac"/><path d="M504.5 78.523c0 39.225-31.798 71.023-71.023 71.023a71.39 71.39 0 01-12.619-1.14c33.201-5.957 58.404-34.967 58.404-69.883 0-34.915-25.202-63.925-58.404-69.883a71.39 71.39 0 0112.619-1.14c39.225 0 71.023 31.798 71.023 71.023zm-71.023 387.149c-10.722 0-19.414 8.692-19.414 19.414s8.692 19.414 19.414 19.414c10.722 0 19.414-8.692 19.414-19.414s-8.692-19.414-19.414-19.414z" fill="#61ae9f"/><path d="M327.023 224.129c0 39.225-31.798 71.023-71.023 71.023s-71.023-31.798-71.023-71.023 31.798-71.023 71.023-71.023 71.023 31.798 71.023 71.023z" fill="#fe5e47"/><path d="M275.414 485.086c0 10.722-8.692 19.414-19.414 19.414s-19.414-8.692-19.414-19.414 8.692-19.414 19.414-19.414c10.722 0 19.414 8.692 19.414 19.414zM256 153.105a71.39 71.39 0 00-12.619 1.14c33.201 5.957 58.404 34.967 58.404 69.883s-25.203 63.926-58.404 69.883a71.39 71.39 0 0012.619 1.14c39.225 0 71.023-31.798 71.023-71.023 0-39.224-31.798-71.023-71.023-71.023z" fill="#f53737"/><path d="M149.546 78.523c0 39.225-31.798 71.023-71.023 71.023S7.5 117.748 7.5 78.523 39.298 7.5 78.523 7.5s71.023 31.798 71.023 71.023z" fill="#ff904e"/><path d="M97.937 485.086c0 10.722-8.692 19.414-19.414 19.414s-19.414-8.692-19.414-19.414 8.692-19.414 19.414-19.414 19.414 8.692 19.414 19.414zM78.523 7.5a71.39 71.39 0 00-12.619 1.14c33.201 5.957 58.404 34.967 58.404 69.883s-25.203 63.926-58.404 69.883a71.39 71.39 0 0012.619 1.14c39.225 0 71.023-31.798 71.023-71.023S117.748 7.5 78.523 7.5z" fill="#ff733d"/><path d="M434.448 71.023c4.142 0 7.5 3.357 7.5 7.5s-3.358 7.5-7.5 7.5h-.971c-4.142 0-7.5-3.357-7.5-7.5s3.358-7.5 7.5-7.5h.971zm-25.724 0c-4.142 0-7.5 3.357-7.5 7.5s3.358 7.5 7.5 7.5h.971c4.142 0 7.5-3.357 7.5-7.5s-3.358-7.5-7.5-7.5h-.971zM512 485.086a7.5 7.5 0 01-7.5 7.5h-45.18C456.064 503.787 445.715 512 433.477 512s-22.587-8.213-25.843-19.414H281.843C278.587 503.787 268.238 512 256 512s-22.587-8.213-25.843-19.414H104.366C101.109 503.787 90.76 512 78.523 512s-22.587-8.213-25.843-19.414H7.5c-4.142 0-7.5-3.357-7.5-7.5s3.358-7.5 7.5-7.5h45.18c2.564-8.819 9.524-15.779 18.343-18.343V156.679C31.231 152.89 0 119.291 0 78.523 0 35.226 35.225 0 78.523 0s78.523 35.226 78.523 78.523c0 14.463-3.967 28.601-11.472 40.885a7.5 7.5 0 01-12.8-7.821c6.066-9.929 9.272-21.362 9.272-33.064C142.046 43.496 113.55 15 78.523 15S15 43.496 15 78.523c0 35.026 28.496 63.522 63.523 63.522 13.928 0 27.147-4.421 38.229-12.785a7.5 7.5 0 019.036 11.973c-11.698 8.83-25.321 14.092-39.765 15.448v302.562c8.819 2.564 15.779 9.524 18.343 18.343h125.791c2.564-8.819 9.524-15.779 18.343-18.343V302.285c-39.792-3.789-71.023-37.388-71.023-78.156 0-37.897 27.013-70.376 64.23-77.225 4.074-.756 7.984 1.944 8.733 6.019a7.5 7.5 0 01-6.019 8.733c-30.099 5.539-51.945 31.813-51.945 62.473 0 35.026 28.496 63.522 63.523 63.522s63.523-28.496 63.523-63.522c0-31.392-22.457-57.77-53.397-62.723a7.5 7.5 0 012.371-14.811c18.235 2.918 34.944 12.274 47.049 26.344a78.521 78.521 0 0118.977 51.189c0 40.767-31.231 74.366-71.023 78.156v156.958c8.819 2.564 15.779 9.524 18.343 18.343h125.791c2.564-8.819 9.524-15.779 18.343-18.343V156.679c-39.792-3.789-71.023-37.388-71.023-78.156C354.954 35.226 390.179 0 433.477 0c17.123 0 33.397 5.416 47.063 15.661a7.5 7.5 0 011.501 10.5 7.5 7.5 0 01-10.5 1.502C460.493 19.379 447.33 15 433.477 15c-35.027 0-63.523 28.496-63.523 63.523 0 35.026 28.497 63.522 63.523 63.522S497 113.55 497 78.523c0-12.261-3.498-24.159-10.114-34.406a7.5 7.5 0 0112.601-8.137C507.673 48.658 512 63.369 512 78.523c0 40.767-31.231 74.366-71.023 78.156v302.564c8.819 2.564 15.779 9.524 18.343 18.343h45.18a7.5 7.5 0 017.5 7.5zm-421.563 0c0-6.569-5.345-11.914-11.914-11.914s-11.914 5.345-11.914 11.914S71.954 497 78.523 497s11.914-5.345 11.914-11.914zm177.477 0c0-6.569-5.345-11.914-11.914-11.914-6.568 0-11.911 5.342-11.914 11.909v.01C244.089 491.658 249.432 497 256 497c6.569 0 11.914-5.345 11.914-11.914zm177.477 0c0-6.569-5.345-11.914-11.914-11.914s-11.914 5.345-11.914 11.914S426.908 497 433.477 497s11.914-5.345 11.914-11.914zM63.962 85.584c-4.142 0-7.5 3.357-7.5 7.5s3.358 7.5 7.5 7.5h29.121c4.142 0 7.5-3.357 7.5-7.5s-3.358-7.5-7.5-7.5H63.962zm177.477 145.605c-4.142 0-7.5 3.357-7.5 7.5s3.358 7.5 7.5 7.5h29.121c4.142 0 7.5-3.357 7.5-7.5s-3.358-7.5-7.5-7.5h-29.121zM110.291 63.963a7.5 7.5 0 00-7.5-7.5H54.255c-4.142 0-7.5 3.357-7.5 7.5s3.358 7.5 7.5 7.5h48.535a7.5 7.5 0 007.501-7.5zm177.477 145.605a7.5 7.5 0 00-7.5-7.5h-48.535c-4.142 0-7.5 3.357-7.5 7.5s3.358 7.5 7.5 7.5h48.535a7.5 7.5 0 007.5-7.5zM457.259 71.023c-4.142 0-7.5 3.357-7.5 7.5s3.358 7.5 7.5 7.5h.971c4.142 0 7.5-3.357 7.5-7.5s-3.358-7.5-7.5-7.5h-.971z"/></svg>